<svg xmlns="http://www.w3.org/2000/svg" width="800" height="600" viewBox="0 0 800 600" role="img" aria-labelledby="title desc">
<title id="title">Schülerin lernt gemeinsam mit einem erfahrenen Tutor</title><desc id="desc">Illustration im easyIT-Leipzig-Design</desc>
<defs><linearGradient id="bg" x1="0" y1="0" x2="1" y2="1"><stop stop-color="#EEF8FF"/><stop offset="1" stop-color="#D9F2FF"/></linearGradient><filter id="shadow"><feDropShadow dx="0" dy="12" stdDeviation="14" flood-opacity=".16"/></filter></defs>

<rect width="800" height="600" rx="36" fill="url(#bg)"/>
<circle cx="120" cy="110" r="70" fill="#F2B600" opacity=".22"/><circle cx="690" cy="95" r="90" fill="#4CD9FF" opacity=".2"/>
<g opacity=".22" stroke="#0057A4" stroke-width="5" fill="none"><ellipse cx="400" cy="135" rx="105" ry="42"/><ellipse cx="400" cy="135" rx="42" ry="105" transform="rotate(55 400 135)"/><circle cx="400" cy="135" r="12" fill="#F2B600"/></g>
<rect x="110" y="345" width="580" height="145" rx="24" fill="#FFFFFF" filter="url(#shadow)"/>
<rect x="175" y="370" width="210" height="92" rx="12" fill="#003B70"/><path d="M205 430l42-38 36 26 55-35" fill="none" stroke="#4CD9FF" stroke-width="8" stroke-linecap="round"/><circle cx="247" cy="392" r="7" fill="#F2B600"/><circle cx="338" cy="383" r="7" fill="#F2B600"/>
<!-- Schülerin links -->
<circle cx="255" cy="250" r="55" fill="#F0C7A6"/><path d="M205 250q8-76 62-72 58 4 48 82-25-32-77-27z" fill="#533A32"/><rect x="196" y="298" width="125" height="132" rx="54" fill="#0057A4"/><path d="M250 315l20 18 18-18" fill="none" stroke="#FFFFFF" stroke-width="6"/>
<!-- Tutor rechts -->
<circle cx="555" cy="230" r="62" fill="#E8BC98"/><path d="M496 222q8-78 65-76 65 3 66 89-40-30-91-21z" fill="#B8B8B8"/><path d="M510 200q42-42 95 0" fill="none" stroke="#777" stroke-width="13" stroke-linecap="round"/><rect x="485" y="292" width="150" height="145" rx="54" fill="#003B70"/><path d="M555 305l25 24 24-24" fill="none" stroke="#F2B600" stroke-width="7"/>
<path d="M485 355l-78 58" stroke="#E8BC98" stroke-width="22" stroke-linecap="round"/><circle cx="405" cy="415" r="15" fill="#E8BC98"/>
<text x="400" y="550" text-anchor="middle" font-family="Arial,sans-serif" font-size="34" font-weight="800" fill="#003B70">Gemeinsam Zusammenhänge verstehen</text>
</svg>